<svg xmlns="http://www.w3.org/2000/svg" xmlns:xlink="http://www.w3.org/1999/xlink" version="1.1" width="1000" height="1000" viewBox="0 0 1000 1000" xml:space="preserve">
<desc>Created with Fabric.js 3.5.0</desc>
<defs>
</defs>
<rect x="0" y="0" width="100%" height="100%" fill="#ffffff"/>
<g transform="matrix(56.8184 0 0 56.8184 500.0003 500.0003)" id="472134">
<path style="stroke: none; stroke-width: 1; stroke-dasharray: none; stroke-linecap: butt; stroke-dashoffset: 0; stroke-linejoin: miter; stroke-miterlimit: 4; is-custom-font: none; font-file-url: none; fill: rgb(255,130,100); fill-opacity: 0.67; fill-rule: evenodd; opacity: 1;" vector-effect="non-scaling-stroke" transform=" translate(-8, -8)" d="M 8.5 0.134 a 1 1 0 0 0 -1 0 l -6 3.577 a 1 1 0 0 0 -0.5 0.866 v 6.846 a 1 1 0 0 0 0.5 0.866 l 6 3.577 a 1 1 0 0 0 1 0 l 6 -3.577 a 1 1 0 0 0 0.5 -0.866 V 4.577 a 1 1 0 0 0 -0.5 -0.866 L 8.5 0.134 z" stroke-linecap="round"/>
</g>
<g transform="matrix(19.1687 0 0 19.1687 500 500)" id="367732">
<path style="stroke: rgb(255,255,255); stroke-width: 1; stroke-dasharray: none; stroke-linecap: butt; stroke-dashoffset: 0; stroke-linejoin: miter; stroke-miterlimit: 4; is-custom-font: none; font-file-url: none; fill: rgb(255,255,255); fill-rule: nonzero; opacity: 1;" vector-effect="non-scaling-stroke" transform=" translate(-16, -16)" d="M 32.032 16 c 0 -8.501 -6.677 -15.472 -15.072 -15.969 c -0.173 -0.019 -0.346 -0.032 -0.523 -0.032 c -0.052 0 -0.104 0.005 -0.156 0.007 c -0.093 -0.002 -0.186 -0.007 -0.281 -0.007 c -8.84 0 -16.032 7.178 -16.032 16.001 s 7.192 16.001 16.032 16.001 c 0.094 0 0.188 -0.006 0.281 -0.008 c 0.052 0.002 0.104 0.008 0.156 0.008 c 0.176 0 0.349 -0.012 0.523 -0.032 c 8.395 -0.497 15.072 -7.468 15.072 -15.969 z M 29.049 21.151 c -0.551 -0.16 -1.935 -0.507 -4.377 -0.794 c 0.202 -1.381 0.313 -2.84 0.313 -4.357 c 0 -1.196 -0.069 -2.354 -0.197 -3.469 c 3.094 -0.37 4.45 -0.835 4.54 -0.867 l -0.372 -1.05 c 0.695 1.659 1.08 3.478 1.08 5.386 c 0 1.818 -0.352 3.555 -0.987 5.151 z M 8.921 16 c 0 -1.119 0.074 -2.212 0.21 -3.263 c 1.621 0.127 3.561 0.222 5.839 0.243 v 6.939 c -2.219 0.021 -4.114 0.111 -5.709 0.234 c -0.22 -1.319 -0.34 -2.715 -0.34 -4.154 z M 16.967 2.132 c 2.452 0.711 4.552 4.115 5.492 8.628 c -1.512 0.12 -3.332 0.209 -5.492 0.229 v -8.857 z M 14.971 2.156 v 8.832 c -2.136 -0.021 -3.965 -0.109 -5.502 -0.226 c 0.96 -4.457 3.076 -7.836 5.502 -8.606 z M 14.971 21.913 l 0 7.929 c -2.263 -0.718 -4.256 -3.705 -5.293 -7.719 c 1.492 -0.11 3.253 -0.189 5.292 -0.21 z M 16.967 29.868 l 0 -7.955 c 2.061 0.02 3.814 0.102 5.288 0.217 c -1.019 4.067 -3 7.076 -5.288 7.738 z M 16.967 19.92 l 0 -6.939 c 2.291 -0.021 4.218 -0.118 5.818 -0.25 c 0.131 1.053 0.203 2.147 0.203 3.268 c 0 1.442 -0.116 2.84 -0.329 4.16 c -1.575 -0.128 -3.462 -0.219 -5.692 -0.24 z M 28.588 9.81 c -0.302 0.094 -1.564 0.453 -4.094 0.751 c -0.564 -2.998 -1.584 -5.561 -2.91 -7.412 c 3.048 1.325 5.535 3.697 7.005 6.661 z M 11.213 2.831 c -1.632 1.873 -2.963 4.568 -3.691 7.754 c -2.265 -0.245 -3.623 -0.534 -4.166 -0.665 c 1.585 -3.27 4.407 -5.836 7.856 -7.088 z M 2.614 11.787 c 0.385 0.104 1.841 0.467 4.549 0.766 c -0.155 1.107 -0.24 2.26 -0.24 3.447 c 0 1.509 0.136 2.96 0.383 4.334 c -2.325 0.251 -3.755 0.552 -4.396 0.706 c -0.607 -1.566 -0.944 -3.264 -0.944 -5.041 c 0 -1.467 0.228 -2.883 0.649 -4.213 z M 3.784 22.886 c 0.727 -0.154 2.029 -0.39 3.956 -0.591 c 0.759 2.803 1.993 5.175 3.473 6.874 c -3.16 -1.148 -5.79 -3.398 -7.429 -6.282 v 0 z M 21.583 28.849 c 1.195 -1.665 2.14 -3.907 2.728 -6.525 c 1.982 0.227 3.226 0.494 3.853 0.652 c -1.5 2.596 -3.808 4.669 -6.581 5.873 z" stroke-linecap="round"/>
</g>
</svg>